<svg width="34" height="27" viewBox="0 0 34 27" fill="none" xmlns="http://www.w3.org/2000/svg">
<path d="M21 5C21 2.23857 23.2386 0 26 0C28.7614 0 31 2.23857 31 5C31 7.76143 28.7614 10 26 10C23.2386 10 21 7.76143 21 5Z" fill="url(#paint0_linear_4_2)"/>
<path d="M13.9078 10.1536C13.4173 9.43598 12.5571 9 11.6315 9C10.7061 9 9.84588 9.43598 9.3554 10.1536L0.408005 23.2445C-0.109156 24.0012 -0.136539 24.9549 0.336487 25.7353C0.80951 26.5158 1.70843 27 2.68421 27H31.3158C32.3325 27 33.2619 26.4747 33.7166 25.6432C34.1713 24.8116 34.0732 23.8165 33.4632 23.0727L28.0947 16.5273C27.5878 15.9092 26.7922 15.5454 25.9474 15.5454C25.1025 15.5454 24.3069 15.9092 23.8 16.5273L20.7804 20.2089L13.9078 10.1536Z" fill="url(#paint1_linear_4_2)"/>
<defs>
<linearGradient id="paint0_linear_4_2" x1="29.6297" y1="2.35711" x2="-1.50795" y2="32.7158" gradientUnits="userSpaceOnUse">
<stop stop-color="#EC2E67"/>
<stop offset="1" stop-color="#ECC22E"/>
</linearGradient>
<linearGradient id="paint1_linear_4_2" x1="29.8445" y1="2.31422" x2="-0.674165" y2="34.8534" gradientUnits="userSpaceOnUse">
<stop stop-color="#EC2E67"/>
<stop offset="1" stop-color="#ECC22E"/>
</linearGradient>
</defs>
</svg>
