<svg width="233" height="65" viewBox="0 0 233 65" fill="none" xmlns="http://www.w3.org/2000/svg">
<path d="M82.164 31.396H95.008V49.596C92.9973 50.2547 90.9693 50.74 88.924 51.052C86.8787 51.364 84.556 51.52 81.956 51.52C78.108 51.52 74.8667 50.7573 72.232 49.232C69.5973 47.672 67.5867 45.4707 66.2 42.628C64.848 39.7507 64.172 36.3533 64.172 32.436C64.172 28.5533 64.9347 25.1907 66.46 22.348C67.9853 19.5053 70.1693 17.304 73.012 15.744C75.8893 14.1493 79.356 13.352 83.412 13.352C85.492 13.352 87.4507 13.5427 89.288 13.924C91.16 14.3053 92.8933 14.8427 94.488 15.536L92.72 19.592C91.4027 19.0027 89.912 18.5 88.248 18.084C86.6187 17.668 84.92 17.46 83.152 17.46C80.2053 17.46 77.6747 18.0667 75.56 19.28C73.4453 20.4933 71.8333 22.2267 70.724 24.48C69.6147 26.6987 69.06 29.3507 69.06 32.436C69.06 35.3827 69.528 38 70.464 40.288C71.4347 42.5413 72.9427 44.3093 74.988 45.592C77.0333 46.84 79.72 47.464 83.048 47.464C84.1573 47.464 85.128 47.4293 85.96 47.36C86.8267 47.256 87.6067 47.1347 88.3 46.996C89.028 46.8573 89.704 46.7187 90.328 46.58V35.556H82.164V31.396ZM113.808 22.66C117.205 22.66 119.719 23.4053 121.348 24.896C122.977 26.3867 123.792 28.7613 123.792 32.02V51H120.464L119.58 47.048H119.372C118.575 48.0533 117.743 48.9027 116.876 49.596C116.044 50.2547 115.073 50.74 113.964 51.052C112.889 51.364 111.572 51.52 110.012 51.52C108.348 51.52 106.84 51.2253 105.488 50.636C104.171 50.0467 103.131 49.1453 102.368 47.932C101.605 46.684 101.224 45.124 101.224 43.252C101.224 40.4787 102.316 38.3467 104.5 36.856C106.684 35.3307 110.047 34.4987 114.588 34.36L119.32 34.204V32.54C119.32 30.2173 118.817 28.6053 117.812 27.704C116.807 26.8027 115.385 26.352 113.548 26.352C112.092 26.352 110.705 26.5773 109.388 27.028C108.071 27.444 106.84 27.9293 105.696 28.484L104.292 25.052C105.505 24.3933 106.944 23.8387 108.608 23.388C110.272 22.9027 112.005 22.66 113.808 22.66ZM115.16 37.532C111.693 37.6707 109.284 38.2253 107.932 39.196C106.615 40.1667 105.956 41.536 105.956 43.304C105.956 44.864 106.424 46.008 107.36 46.736C108.331 47.464 109.561 47.828 111.052 47.828C113.409 47.828 115.368 47.1867 116.928 45.904C118.488 44.5867 119.268 42.576 119.268 39.872V37.376L115.16 37.532ZM136.976 51H132.4V11.48H136.976V51ZM150.383 51H145.807V11.48H150.383V51ZM169.977 22.608C172.369 22.608 174.414 23.128 176.113 24.168C177.846 25.208 179.164 26.6813 180.065 28.588C181.001 30.46 181.469 32.6613 181.469 35.192V37.948H162.385C162.454 41.1027 163.252 43.512 164.777 45.176C166.337 46.8053 168.504 47.62 171.277 47.62C173.045 47.62 174.605 47.464 175.957 47.152C177.344 46.8053 178.765 46.32 180.221 45.696V49.7C178.8 50.324 177.396 50.7747 176.009 51.052C174.622 51.364 172.976 51.52 171.069 51.52C168.434 51.52 166.094 50.9827 164.049 49.908C162.038 48.8333 160.461 47.2387 159.317 45.124C158.208 42.9747 157.653 40.3573 157.653 37.272C157.653 34.2213 158.156 31.604 159.161 29.42C160.201 27.236 161.64 25.5547 163.477 24.376C165.349 23.1973 167.516 22.608 169.977 22.608ZM169.925 26.352C167.741 26.352 166.008 27.0627 164.725 28.484C163.477 29.8707 162.732 31.812 162.489 34.308H176.685C176.685 32.7133 176.442 31.3267 175.957 30.148C175.472 28.9693 174.726 28.0507 173.721 27.392C172.75 26.6987 171.485 26.352 169.925 26.352ZM201.565 22.608C202.085 22.608 202.639 22.6427 203.229 22.712C203.853 22.7467 204.39 22.816 204.841 22.92L204.269 27.132C203.818 27.028 203.315 26.9413 202.761 26.872C202.241 26.8027 201.738 26.768 201.253 26.768C200.178 26.768 199.155 26.9933 198.185 27.444C197.214 27.8947 196.347 28.536 195.585 29.368C194.822 30.1653 194.215 31.136 193.765 32.28C193.349 33.424 193.141 34.7067 193.141 36.128V51H188.565V23.128H192.309L192.829 28.224H193.037C193.626 27.184 194.337 26.248 195.169 25.416C196.001 24.5493 196.954 23.8733 198.029 23.388C199.103 22.868 200.282 22.608 201.565 22.608ZM205.677 23.128H210.565L216.597 38.988C216.944 39.924 217.256 40.8253 217.533 41.692C217.845 42.5587 218.122 43.408 218.365 44.24C218.608 45.0373 218.798 45.8173 218.937 46.58H219.145C219.353 45.7133 219.682 44.5867 220.133 43.2C220.584 41.7787 221.052 40.3573 221.537 38.936L227.205 23.128H232.145L220.133 54.848C219.474 56.5813 218.694 58.0893 217.793 59.372C216.926 60.6893 215.852 61.6947 214.569 62.388C213.321 63.116 211.796 63.48 209.993 63.48C209.161 63.48 208.433 63.428 207.809 63.324C207.185 63.2547 206.648 63.168 206.197 63.064V59.424C206.578 59.4933 207.029 59.5627 207.549 59.632C208.104 59.7013 208.676 59.736 209.265 59.736C210.34 59.736 211.258 59.528 212.021 59.112C212.818 58.7307 213.494 58.1587 214.049 57.396C214.604 56.668 215.072 55.8013 215.453 54.796L216.909 51.104L205.677 23.128Z" fill="black"/>
<path d="M27.8421 19.9091C27.8421 16.0933 31.0939 13 35.1052 13C39.1166 13 42.3684 16.0933 42.3684 19.9091C42.3684 23.7249 39.1166 26.8182 35.1052 26.8182C31.0939 26.8182 27.8421 23.7249 27.8421 19.9091Z" fill="url(#paint0_linear_1_7)"/>
<path d="M18.8164 27.2903C18.1528 26.2803 16.989 25.6667 15.7368 25.6667C14.4847 25.6667 13.3209 26.2803 12.6573 27.2903L0.552007 45.7146C-0.147681 46.7795 -0.184729 48.1217 0.455247 49.2201C1.09522 50.3185 2.31141 51 3.63158 51H42.3684C43.7439 51 45.0014 50.2607 45.6166 49.0904C46.2317 47.92 46.099 46.5195 45.2737 45.4727L38.0105 36.2606C37.3247 35.3907 36.2483 34.8788 35.1053 34.8788C33.9622 34.8788 32.8858 35.3907 32.2 36.2606L28.1146 41.4422L18.8164 27.2903Z" fill="url(#paint1_linear_1_7)"/>
<defs>
<linearGradient id="paint0_linear_1_7" x1="40.3778" y1="16.2571" x2="-2.64952" y2="60.3578" gradientUnits="userSpaceOnUse">
<stop stop-color="#EC2E67"/>
<stop offset="1" stop-color="#ECC22E"/>
</linearGradient>
<linearGradient id="paint1_linear_1_7" x1="40.3778" y1="16.2571" x2="-2.64952" y2="60.3578" gradientUnits="userSpaceOnUse">
<stop stop-color="#EC2E67"/>
<stop offset="1" stop-color="#ECC22E"/>
</linearGradient>
</defs>
</svg>
